<svg width="13" height="14" viewBox="0 0 13 14" fill="none" xmlns="http://www.w3.org/2000/svg">
<path d="M12.0296 3.19049L12.0297 3.19064C12.0412 3.22099 12.05 3.25503 12.05 3.29193V4.28053C12.05 4.86145 11.6693 5.34982 11.1451 5.5305L11.145 12.76C11.145 12.9206 11.0136 13.05 10.8523 13.05H2.14749C1.9863 13.05 1.85476 12.9208 1.85476 12.76V5.53049C1.33073 5.34972 0.950103 4.86138 0.95 4.28064V4.28063V3.29203C0.95 3.25515 0.958803 3.22102 0.970312 3.19064L0.970367 3.1905C0.974075 3.1808 0.978817 3.17172 0.982016 3.16559C0.982612 3.16445 0.983155 3.16341 0.983627 3.16249C0.983633 3.16248 0.983638 3.16246 0.983643 3.16245L12.0296 3.19049ZM12.0296 3.19049C12.0259 3.18069 12.0212 3.17159 12.0179 3.16532C12.0173 3.16425 12.0168 3.16325 12.0164 3.16235L11.9719 3.18515L12.0165 3.16259C12.0156 3.16095 12.0151 3.15965 12.014 3.15709C12.0135 3.15578 12.0128 3.15413 12.0119 3.15194C12.0096 3.14674 12.0061 3.1387 12.0006 3.13049L12.0004 3.13028M12.0296 3.19049L12.0004 3.13028M12.0004 3.13028L10.6095 1.07832L10.6095 1.0783M12.0004 3.13028L10.6095 1.0783M10.6095 1.0783C10.555 0.99796 10.4638 0.95 10.3663 0.95H2.63377C2.53624 0.95 2.44512 0.998087 2.39063 1.07827L2.3906 1.07832M10.6095 1.0783L2.3906 1.07832M2.3906 1.07832L0.999748 3.13015M2.3906 1.07832L0.999748 3.13015M1.5357 3.58187H11.4644V4.2805C11.4643 4.69323 11.1246 5.02997 10.7057 5.02997C10.2869 5.02989 9.94696 4.69316 9.94696 4.2805C9.94696 4.11976 9.81542 3.99053 9.65423 3.99053C9.49292 3.99053 9.36151 4.11989 9.36151 4.2805C9.36151 4.69323 9.02172 5.02997 8.60285 5.02997C8.18398 5.02997 7.8442 4.69323 7.8442 4.2805C7.8442 4.11976 7.71266 3.99053 7.55147 3.99053C7.39016 3.99053 7.25875 4.11988 7.25875 4.28049L1.5357 3.58187ZM1.5357 3.58187V4.2805C1.5357 4.69323 1.87548 5.02997 2.29435 5.02997C2.71312 5.02997 3.05301 4.69323 3.05301 4.2805C3.05301 4.11989 3.18442 3.99053 3.34574 3.99053C3.50692 3.99053 3.63846 4.11976 3.63846 4.2805C3.63846 4.69323 3.97825 5.02997 4.39712 5.02997C4.81598 5.02997 5.15578 4.69324 5.15588 4.2805L1.5357 3.58187ZM0.999748 3.13015C0.999726 3.13018 0.999705 3.13021 0.999684 3.13024L0.999748 3.13015ZM6.49999 5.02997C6.91885 5.02997 7.25864 4.69324 7.25875 4.2805L6.49999 5.02997ZM6.49999 5.02997C6.08112 5.02997 5.74133 4.69323 5.74133 4.2805M6.49999 5.02997L5.74133 4.2805M5.74133 4.2805C5.74133 4.11976 5.60979 3.99053 5.4486 3.99053M5.74133 4.2805L5.4486 3.99053M5.4486 3.99053C5.28729 3.99053 5.15588 4.11988 5.15588 4.28049L5.4486 3.99053ZM5.36279 7.24515C5.36279 7.44981 5.41845 7.64174 5.51531 7.80714C5.02087 7.8836 4.63898 8.30351 4.63898 8.81527V8.98454H2.44033L2.44043 5.59999C2.80559 5.56076 3.12791 5.37809 3.34578 5.10804C3.5923 5.41382 3.97193 5.61013 4.39716 5.61013C4.82238 5.61013 5.20211 5.41383 5.44855 5.10805C5.69508 5.41383 6.07481 5.61013 6.50003 5.61013C6.92525 5.61013 7.30498 5.41383 7.55142 5.10805C7.79794 5.41382 8.17758 5.61013 8.6029 5.61013C9.02812 5.61013 9.40786 5.41382 9.6543 5.10804C9.8722 5.37799 10.1946 5.56066 10.5596 5.59998V8.98454H8.36099V8.81527C8.36099 8.30353 7.97922 7.88363 7.4849 7.80715C7.58183 7.64175 7.63749 7.44981 7.63749 7.24515C7.63749 6.62415 7.12667 6.12005 6.50003 6.12005C5.87339 6.12005 5.36279 6.62416 5.36279 7.24515ZM5.94836 7.24515C5.94836 6.94513 6.1955 6.70009 6.50005 6.70009C6.80491 6.70009 7.05195 6.94523 7.05195 7.24515C7.05195 7.54496 6.80482 7.79011 6.50005 7.79011C6.1955 7.79011 5.94836 7.54497 5.94836 7.24515ZM7.32455 8.37005C7.57364 8.37005 7.77545 8.57031 7.77545 8.81516V8.98444H5.2245V8.81516C5.2245 8.57031 5.4263 8.37005 5.6754 8.37005H7.32455ZM2.44038 12.4703V9.56448H10.5596V12.4703H2.44038ZM2.78988 1.52991H10.2106L11.2082 3.00193H1.7923L2.78988 1.52991Z" fill="#B82748" stroke="#B82748" stroke-width="0.1"/>
</svg>
